<?xml version="1.0" encoding="UTF-8"?><svg id="Layer_1" xmlns="http://www.w3.org/2000/svg" viewBox="0 0 493.42 388.75"><defs><style>.cls-1{fill:#231f20;}</style></defs><path class="cls-1" d="m9.43,356.67v10.2h17.86v7.17H9.43v14.05H.5v-38.58h29.16v7.17H9.43Z"/><path class="cls-1" d="m52.55,388.75h30.89c11.34,0,19.65-8.49,19.65-19.96s-8.31-19.95-19.65-19.95h-30.89c-11.28,0-19.64,8.43-19.64,19.95s8.36,19.96,19.64,19.96Zm29.8-33.52c8.28,0,14.35,5.77,14.35,13.57s-6.07,13.56-14.35,13.56-14.35-5.74-14.35-13.56,6.11-13.57,14.35-13.57Z"/><path class="cls-1" d="m104.75,368.8c0-11.63,8.93-19.95,20.94-19.95,6.67,0,12.24,2.42,15.87,6.83l-5.73,5.29c-2.59-2.98-5.84-4.52-9.7-4.52-7.22,0-12.35,5.07-12.35,12.35s5.13,12.35,12.35,12.35c3.86,0,7.11-1.54,9.7-4.57l5.73,5.29c-3.64,4.46-9.2,6.89-15.93,6.89-11.96,0-20.89-8.32-20.89-19.95Z"/><path class="cls-1" d="m146.91,371.11v-21.61h8.93v21.27c0,7.33,3.2,10.36,8.6,10.36s8.6-3.03,8.6-10.36v-21.27h8.82v21.61c0,11.35-6.5,17.64-17.47,17.64s-17.47-6.28-17.47-17.64Z"/><path class="cls-1" d="m187.63,384.28l3.03-6.72c3.25,2.37,8.1,4.02,12.73,4.02,5.29,0,7.44-1.76,7.44-4.13,0-7.22-22.43-2.26-22.43-16.59,0-6.56,5.29-12.01,16.26-12.01,4.85,0,9.81,1.16,13.39,3.42l-2.76,6.78c-3.58-2.04-7.28-3.03-10.69-3.03-5.29,0-7.33,1.98-7.33,4.41,0,7.11,22.43,2.2,22.43,16.37,0,6.45-5.35,11.96-16.37,11.96-6.12,0-12.29-1.82-15.71-4.46Z"/></svg>