<svg width="30" height="30" viewBox="0 0 30 30" fill="none" xmlns="http://www.w3.org/2000/svg">
<path d="M16.25 15.25H15.25V16.25V28.75C15.25 28.8163 15.2237 28.8799 15.1768 28.9268C15.1299 28.9737 15.0663 29 15 29C14.9337 29 14.8701 28.9737 14.8232 28.9268C14.7763 28.8799 14.75 28.8163 14.75 28.75V16.25V15.25H13.75H1.25C1.18369 15.25 1.12011 15.2237 1.07322 15.1768C1.02634 15.1299 1 15.0663 1 15C1 14.9337 1.02634 14.8701 1.07322 14.8232C1.12011 14.7763 1.1837 14.75 1.25 14.75H13.75H14.75V13.75V1.25C14.75 1.1837 14.7763 1.12011 14.8232 1.07322C14.8701 1.02634 14.9337 1 15 1C15.0663 1 15.1299 1.02634 15.1768 1.07322C15.2237 1.12011 15.25 1.18369 15.25 1.25V13.75V14.75H16.25H28.75C28.8163 14.75 28.8799 14.7763 28.9268 14.8232C28.9737 14.8701 29 14.9337 29 15C29 15.0663 28.9737 15.1299 28.9268 15.1768C28.8799 15.2237 28.8163 15.25 28.75 15.25H16.25Z" fill="black" stroke="black" stroke-width="2"/>
</svg>
