<svg width="30" height="31" viewBox="0 0 30 31" fill="none" xmlns="http://www.w3.org/2000/svg">
<path d="M15.5 17.085V17.2275L15.6226 17.3001L21.4047 20.726L20.5408 22.1429L13.75 18.0685V9.46H15.5V17.085ZM7.3986 24.3114C9.41462 26.3274 12.1489 27.46 15 27.46C17.8511 27.46 20.5854 26.3274 22.6014 24.3114C24.6174 22.2954 25.75 19.5611 25.75 16.71C25.75 13.8589 24.6174 11.1246 22.6014 9.1086C20.5854 7.09259 17.8511 5.96 15 5.96C12.1489 5.96 9.41462 7.09259 7.3986 9.1086C5.38259 11.1246 4.25 13.8589 4.25 16.71C4.25 19.5611 5.38259 22.2954 7.3986 24.3114ZM5.63084 7.34084C8.11569 4.85598 11.4859 3.46 15 3.46C18.5141 3.46 21.8843 4.85598 24.3692 7.34084C26.854 9.82569 28.25 13.1959 28.25 16.71C28.25 20.2241 26.854 23.5943 24.3692 26.0792C21.8843 28.564 18.5141 29.96 15 29.96C11.4859 29.96 8.11569 28.564 5.63084 26.0792C3.14598 23.5943 1.75 20.2241 1.75 16.71C1.75 13.1959 3.14598 9.82569 5.63084 7.34084ZM1.96539 7.71821L0.352865 5.80568L6.8687 0.352202L8.46804 2.26391L1.96539 7.71821ZM21.5177 2.26457L23.1304 0.351832L29.6473 5.82043L28.0346 7.73317L21.5177 2.26457Z" fill="black" stroke="black" stroke-width="0.5"/>
</svg>
