<svg width="30" height="31" viewBox="0 0 30 31" fill="none" xmlns="http://www.w3.org/2000/svg">
<path d="M27.5 30.8117H20C19.337 30.8117 18.7011 30.5483 18.2322 30.0795C17.7634 29.6106 17.5 28.9747 17.5 28.3117V20.8117H12.5V28.3117C12.5 28.9747 12.2366 29.6106 11.7678 30.0795C11.2989 30.5483 10.663 30.8117 10 30.8117H2.5C1.83696 30.8117 1.20107 30.5483 0.732233 30.0795C0.263392 29.6106 0 28.9747 0 28.3117V13.8586C0.000110228 13.5117 0.0724042 13.1686 0.212284 12.8512C0.352164 12.5338 0.55657 12.249 0.8125 12.0148L13.3125 0.655456C13.7734 0.233829 14.3754 0 15 0C15.6246 0 16.2266 0.233829 16.6875 0.655456L29.1875 12.0148C29.4434 12.249 29.6478 12.5338 29.7877 12.8512C29.9276 13.1686 29.9999 13.5117 30 13.8586V28.3117C30 28.9747 29.7366 29.6106 29.2678 30.0795C28.7989 30.5483 28.163 30.8117 27.5 30.8117ZM12.5 18.3117H17.5C18.163 18.3117 18.7989 18.5751 19.2678 19.0439C19.7366 19.5128 20 20.1487 20 20.8117V28.3117H27.5V13.8586L15 2.49921L2.5 13.8586V28.3117H10V20.8117C10 20.1487 10.2634 19.5128 10.7322 19.0439C11.2011 18.5751 11.837 18.3117 12.5 18.3117Z" fill="black"/>
</svg>
